<mxfile host="app.diagrams.net" modified="2022-08-18T21:03:49.248Z" agent="5.0 (X11; Linux x86_64) AppleWebKit/537.36 (KHTML, like Gecko) Chrome/104.0.0.0 Safari/537.36" etag="_EWfoMFtmz5F-wSeQ2S_" version="20.2.4" type="github">
  <diagram id="7C2QVELQKPiOMJYm8VlU" name="Page-1">
    <mxGraphModel dx="1422" dy="3081" grid="1" gridSize="10" guides="1" tooltips="1" connect="1" arrows="1" fold="1" page="1" pageScale="1" pageWidth="827" pageHeight="1169" math="0" shadow="0">
      <root>
        <mxCell id="0" />
        <mxCell id="1" parent="0" />
        <mxCell id="tdRsFweF9JX3h99Y0t2S-2" value="" style="endArrow=classic;html=1;rounded=0;" parent="1" edge="1">
          <mxGeometry width="50" height="50" relative="1" as="geometry">
            <mxPoint x="482.5" y="-2140" as="sourcePoint" />
            <mxPoint x="482.5" y="-2050" as="targetPoint" />
          </mxGeometry>
        </mxCell>
        <mxCell id="tdRsFweF9JX3h99Y0t2S-4" value="&lt;b&gt;SENDS IT TO THE APP AS JSON&lt;/b&gt;" style="text;html=1;align=center;verticalAlign=middle;resizable=0;points=[];autosize=1;strokeColor=none;fillColor=none;" parent="1" vertex="1">
          <mxGeometry x="482.5" y="-2110" width="210" height="30" as="geometry" />
        </mxCell>
        <mxCell id="tdRsFweF9JX3h99Y0t2S-5" value="&lt;b&gt;&amp;nbsp; FIRST HOMEPAGE COMPONENTS MOUNT ON DOM&lt;/b&gt;" style="rounded=1;whiteSpace=wrap;html=1;absoluteArcSize=1;arcSize=14;strokeWidth=2;" parent="1" vertex="1">
          <mxGeometry x="392.5" y="-1900" width="180" height="100" as="geometry" />
        </mxCell>
        <mxCell id="tdRsFweF9JX3h99Y0t2S-6" value="&lt;b&gt;&lt;br&gt;&lt;br&gt;PRODUCTS DATA IN FIREBASE&lt;/b&gt;" style="strokeWidth=2;html=1;shape=mxgraph.flowchart.database;whiteSpace=wrap;" parent="1" vertex="1">
          <mxGeometry x="412.5" y="-2240" width="140" height="100" as="geometry" />
        </mxCell>
        <mxCell id="tdRsFweF9JX3h99Y0t2S-7" value="&lt;b&gt;REDUX REDUCER TAKES THE JSON DATA AND STORES IT IN THE CLIENT&lt;/b&gt;" style="rounded=1;whiteSpace=wrap;html=1;absoluteArcSize=1;arcSize=14;strokeWidth=2;" parent="1" vertex="1">
          <mxGeometry x="400" y="-2050" width="165" height="100" as="geometry" />
        </mxCell>
        <mxCell id="tdRsFweF9JX3h99Y0t2S-10" value="" style="endArrow=classic;html=1;rounded=0;entryX=0.5;entryY=0;entryDx=0;entryDy=0;" parent="1" target="tdRsFweF9JX3h99Y0t2S-5" edge="1">
          <mxGeometry width="50" height="50" relative="1" as="geometry">
            <mxPoint x="482.5" y="-1950" as="sourcePoint" />
            <mxPoint x="532.5" y="-2000" as="targetPoint" />
          </mxGeometry>
        </mxCell>
        <mxCell id="tdRsFweF9JX3h99Y0t2S-11" value="&lt;b&gt;USER CHOOSES A PRODUCT&lt;/b&gt;" style="strokeWidth=2;html=1;shape=mxgraph.flowchart.decision;whiteSpace=wrap;" parent="1" vertex="1">
          <mxGeometry x="412.5" y="-1480" width="140" height="140" as="geometry" />
        </mxCell>
        <mxCell id="tdRsFweF9JX3h99Y0t2S-12" value="&lt;b&gt;DATA THEN IS TRANSFERRED TO THE ITEMCARDS COMPONENT BY ANOTHER REDUCER&lt;/b&gt;" style="rounded=1;whiteSpace=wrap;html=1;absoluteArcSize=1;arcSize=14;strokeWidth=2;" parent="1" vertex="1">
          <mxGeometry x="392.5" y="-1620" width="200" height="100" as="geometry" />
        </mxCell>
        <mxCell id="tdRsFweF9JX3h99Y0t2S-14" value="" style="endArrow=classic;html=1;rounded=0;entryX=0.461;entryY=0;entryDx=0;entryDy=0;entryPerimeter=0;exitX=0.5;exitY=1;exitDx=0;exitDy=0;" parent="1" source="tdRsFweF9JX3h99Y0t2S-5" target="tdRsFweF9JX3h99Y0t2S-12" edge="1">
          <mxGeometry width="50" height="50" relative="1" as="geometry">
            <mxPoint x="475.5" y="-1800" as="sourcePoint" />
            <mxPoint x="522.5" y="-1850" as="targetPoint" />
          </mxGeometry>
        </mxCell>
        <mxCell id="tdRsFweF9JX3h99Y0t2S-16" value="&lt;b&gt;&lt;font style=&quot;font-size: 11px;&quot;&gt;USER NAVIGATES TO SHOP PAGE&lt;/font&gt;&lt;/b&gt;" style="strokeWidth=2;html=1;shape=mxgraph.flowchart.decision;whiteSpace=wrap;" parent="1" vertex="1">
          <mxGeometry x="417.5" y="-1780" width="135" height="130" as="geometry" />
        </mxCell>
        <mxCell id="tdRsFweF9JX3h99Y0t2S-17" value="&lt;b&gt;SELECTED PRODUCT DATA IS SENT TO PRODUCT PAGE BY ANOTHER REDUCER&lt;/b&gt;" style="rounded=1;whiteSpace=wrap;html=1;absoluteArcSize=1;arcSize=14;strokeWidth=2;fontSize=11;" parent="1" vertex="1">
          <mxGeometry x="372.5" y="-1290" width="250" height="100" as="geometry" />
        </mxCell>
        <mxCell id="tdRsFweF9JX3h99Y0t2S-18" value="" style="endArrow=classic;html=1;rounded=0;fontSize=11;entryX=0.5;entryY=0;entryDx=0;entryDy=0;entryPerimeter=0;exitX=0.44;exitY=1.01;exitDx=0;exitDy=0;exitPerimeter=0;" parent="1" source="tdRsFweF9JX3h99Y0t2S-12" target="tdRsFweF9JX3h99Y0t2S-11" edge="1">
          <mxGeometry width="50" height="50" relative="1" as="geometry">
            <mxPoint x="442.5" y="-1490" as="sourcePoint" />
            <mxPoint x="492.5" y="-1540" as="targetPoint" />
            <Array as="points" />
          </mxGeometry>
        </mxCell>
        <mxCell id="tdRsFweF9JX3h99Y0t2S-19" value="" style="endArrow=classic;html=1;rounded=0;fontSize=11;entryX=0.444;entryY=0.01;entryDx=0;entryDy=0;exitX=0.5;exitY=1;exitDx=0;exitDy=0;exitPerimeter=0;entryPerimeter=0;" parent="1" source="tdRsFweF9JX3h99Y0t2S-11" target="tdRsFweF9JX3h99Y0t2S-17" edge="1">
          <mxGeometry width="50" height="50" relative="1" as="geometry">
            <mxPoint x="442.5" y="-1330" as="sourcePoint" />
            <mxPoint x="492.5" y="-1380" as="targetPoint" />
          </mxGeometry>
        </mxCell>
        <mxCell id="tdRsFweF9JX3h99Y0t2S-20" value="" style="strokeWidth=2;html=1;shape=mxgraph.flowchart.annotation_2;align=left;labelPosition=right;pointerEvents=1;fontSize=11;" parent="1" vertex="1">
          <mxGeometry x="552.5" y="-1765" width="50" height="100" as="geometry" />
        </mxCell>
        <mxCell id="tdRsFweF9JX3h99Y0t2S-21" value="&lt;b&gt;LAZY LOADING IS IMPLEMENTED AS USER SCROLLS DOWN&lt;/b&gt;" style="rounded=1;whiteSpace=wrap;html=1;absoluteArcSize=1;arcSize=14;strokeWidth=2;fontSize=11;" parent="1" vertex="1">
          <mxGeometry x="602.5" y="-1810" width="130" height="70" as="geometry" />
        </mxCell>
        <mxCell id="tdRsFweF9JX3h99Y0t2S-27" value="&lt;b&gt;SEARCH, FILTER AND SORT ALGORITHMS APPLIED ON THE DATA BY REDUCERS&lt;/b&gt;" style="rounded=1;whiteSpace=wrap;html=1;absoluteArcSize=1;arcSize=14;strokeWidth=2;fontSize=11;" parent="1" vertex="1">
          <mxGeometry x="602.5" y="-1710" width="130" height="80" as="geometry" />
        </mxCell>
        <mxCell id="tdRsFweF9JX3h99Y0t2S-28" value="" style="endArrow=classic;html=1;rounded=0;fontSize=11;startArrow=none;" parent="1" source="tdRsFweF9JX3h99Y0t2S-30" edge="1">
          <mxGeometry width="50" height="50" relative="1" as="geometry">
            <mxPoint x="492.5" y="-1190" as="sourcePoint" />
            <mxPoint x="492.5" y="-1060" as="targetPoint" />
          </mxGeometry>
        </mxCell>
        <mxCell id="tdRsFweF9JX3h99Y0t2S-31" value="&lt;b&gt;BAG REDUCER UPDATES THE UI AND ADDS THE PRODCUTS&lt;/b&gt;" style="rounded=1;whiteSpace=wrap;html=1;absoluteArcSize=1;arcSize=14;strokeWidth=2;fontSize=11;" parent="1" vertex="1">
          <mxGeometry x="387.5" y="-950" width="210" height="100" as="geometry" />
        </mxCell>
        <mxCell id="tdRsFweF9JX3h99Y0t2S-30" value="&lt;b&gt;&lt;br&gt;USER ADDS PRODCUTS TO THE BAG&lt;/b&gt;" style="strokeWidth=2;html=1;shape=mxgraph.flowchart.decision;whiteSpace=wrap;fontSize=11;" parent="1" vertex="1">
          <mxGeometry x="420" y="-1140" width="145" height="150" as="geometry" />
        </mxCell>
        <mxCell id="tdRsFweF9JX3h99Y0t2S-32" value="" style="endArrow=none;html=1;rounded=0;fontSize=11;" parent="1" target="tdRsFweF9JX3h99Y0t2S-30" edge="1">
          <mxGeometry width="50" height="50" relative="1" as="geometry">
            <mxPoint x="492.5" y="-1190" as="sourcePoint" />
            <mxPoint x="492.5" y="-1060" as="targetPoint" />
          </mxGeometry>
        </mxCell>
        <mxCell id="tdRsFweF9JX3h99Y0t2S-33" value="" style="endArrow=classic;html=1;rounded=0;fontSize=11;entryX=0.5;entryY=0;entryDx=0;entryDy=0;" parent="1" target="tdRsFweF9JX3h99Y0t2S-31" edge="1">
          <mxGeometry width="50" height="50" relative="1" as="geometry">
            <mxPoint x="492.5" y="-990" as="sourcePoint" />
            <mxPoint x="542.5" y="-1040" as="targetPoint" />
          </mxGeometry>
        </mxCell>
        <mxCell id="tdRsFweF9JX3h99Y0t2S-34" value="" style="strokeWidth=2;html=1;shape=mxgraph.flowchart.annotation_2;align=left;labelPosition=right;pointerEvents=1;fontSize=11;rotation=90;" parent="1" vertex="1">
          <mxGeometry x="442.5" y="-936.87" width="100" height="278.75" as="geometry" />
        </mxCell>
        <mxCell id="tdRsFweF9JX3h99Y0t2S-35" value="&lt;b&gt;&lt;br&gt;&amp;nbsp; &amp;nbsp;USER KEEPS ON SHOPPING BY CLICKING &lt;br&gt;SHOP PAGE AGAIN&lt;/b&gt;" style="strokeWidth=2;html=1;shape=mxgraph.flowchart.decision;whiteSpace=wrap;fontSize=11;" parent="1" vertex="1">
          <mxGeometry x="262.5" y="-750" width="180" height="180" as="geometry" />
        </mxCell>
        <mxCell id="tdRsFweF9JX3h99Y0t2S-36" value="&lt;b&gt;USER CHECKS OUT&lt;/b&gt;" style="strokeWidth=2;html=1;shape=mxgraph.flowchart.decision;whiteSpace=wrap;fontSize=11;" parent="1" vertex="1">
          <mxGeometry x="542.5" y="-750" width="170" height="180" as="geometry" />
        </mxCell>
        <mxCell id="tdRsFweF9JX3h99Y0t2S-38" value="" style="endArrow=none;html=1;rounded=0;fontSize=11;" parent="1" edge="1">
          <mxGeometry width="50" height="50" relative="1" as="geometry">
            <mxPoint x="192.5" y="-660.38" as="sourcePoint" />
            <mxPoint x="262.5" y="-660.5" as="targetPoint" />
          </mxGeometry>
        </mxCell>
        <mxCell id="tdRsFweF9JX3h99Y0t2S-39" value="" style="endArrow=none;html=1;rounded=0;fontSize=11;" parent="1" edge="1">
          <mxGeometry width="50" height="50" relative="1" as="geometry">
            <mxPoint x="192.5" y="-658.12" as="sourcePoint" />
            <mxPoint x="192.5" y="-1710" as="targetPoint" />
          </mxGeometry>
        </mxCell>
        <mxCell id="tdRsFweF9JX3h99Y0t2S-40" value="" style="endArrow=classic;html=1;rounded=0;fontSize=11;entryX=0;entryY=0.5;entryDx=0;entryDy=0;entryPerimeter=0;" parent="1" target="tdRsFweF9JX3h99Y0t2S-16" edge="1">
          <mxGeometry width="50" height="50" relative="1" as="geometry">
            <mxPoint x="192.5" y="-1710" as="sourcePoint" />
            <mxPoint x="242.5" y="-1765" as="targetPoint" />
            <Array as="points" />
          </mxGeometry>
        </mxCell>
        <mxCell id="tdRsFweF9JX3h99Y0t2S-41" value="" style="endArrow=classic;html=1;rounded=0;fontSize=11;entryX=0.4;entryY=-0.03;entryDx=0;entryDy=0;entryPerimeter=0;" parent="1" target="tdRsFweF9JX3h99Y0t2S-42" edge="1">
          <mxGeometry width="50" height="50" relative="1" as="geometry">
            <mxPoint x="627" y="-574" as="sourcePoint" />
            <mxPoint x="627" y="-464" as="targetPoint" />
          </mxGeometry>
        </mxCell>
        <mxCell id="tdRsFweF9JX3h99Y0t2S-42" value="&lt;b&gt;PAYMENT INFORMATION&amp;nbsp; IS SENT TO STRIPE COMPONENT AND CHECKOUT PAGE UI IS UPDATED ACCORDINGLY&lt;/b&gt;" style="rounded=1;whiteSpace=wrap;html=1;absoluteArcSize=1;arcSize=14;strokeWidth=2;fontSize=11;" parent="1" vertex="1">
          <mxGeometry x="557.5" y="-480" width="175" height="100" as="geometry" />
        </mxCell>
        <mxCell id="tdRsFweF9JX3h99Y0t2S-43" value="" style="endArrow=classic;html=1;rounded=0;fontSize=11;" parent="1" edge="1">
          <mxGeometry width="50" height="50" relative="1" as="geometry">
            <mxPoint x="632.5" y="-380" as="sourcePoint" />
            <mxPoint x="632.5" y="-280" as="targetPoint" />
          </mxGeometry>
        </mxCell>
        <mxCell id="tdRsFweF9JX3h99Y0t2S-44" value="&lt;b&gt;&amp;nbsp; &amp;nbsp; &amp;nbsp;&lt;br&gt;USER ENTERS CREDIT CARD AND BUYS THE PROCUTS&lt;/b&gt;" style="strokeWidth=2;html=1;shape=mxgraph.flowchart.decision;whiteSpace=wrap;fontSize=11;" parent="1" vertex="1">
          <mxGeometry x="565" y="-280" width="140" height="140" as="geometry" />
        </mxCell>
        <mxCell id="tdRsFweF9JX3h99Y0t2S-45" value="" style="strokeWidth=2;html=1;shape=mxgraph.flowchart.annotation_2;align=left;labelPosition=right;pointerEvents=1;fontSize=11;rotation=-180;" parent="1" vertex="1">
          <mxGeometry x="515" y="-260" width="50" height="100" as="geometry" />
        </mxCell>
        <mxCell id="tdRsFweF9JX3h99Y0t2S-46" value="&lt;b&gt;PAYMENT SUCCESSFUL&lt;/b&gt;" style="rounded=1;whiteSpace=wrap;html=1;absoluteArcSize=1;arcSize=14;strokeWidth=2;fontSize=11;" parent="1" vertex="1">
          <mxGeometry x="392.5" y="-290" width="120" height="50" as="geometry" />
        </mxCell>
        <mxCell id="tdRsFweF9JX3h99Y0t2S-47" value="&lt;b&gt;PAYMENT NOT SUCCESFUL&lt;/b&gt;" style="rounded=1;whiteSpace=wrap;html=1;absoluteArcSize=1;arcSize=14;strokeWidth=2;fontSize=11;" parent="1" vertex="1">
          <mxGeometry x="395" y="-180" width="120" height="50" as="geometry" />
        </mxCell>
        <mxCell id="tdRsFweF9JX3h99Y0t2S-48" value="" style="endArrow=classic;html=1;rounded=0;fontSize=11;" parent="1" target="tdRsFweF9JX3h99Y0t2S-49" edge="1">
          <mxGeometry width="50" height="50" relative="1" as="geometry">
            <mxPoint x="392.5" y="-260" as="sourcePoint" />
            <mxPoint x="302.5" y="-260" as="targetPoint" />
          </mxGeometry>
        </mxCell>
        <mxCell id="tdRsFweF9JX3h99Y0t2S-49" value="&lt;b&gt;USER IS NOTIFIED&lt;/b&gt;" style="rounded=1;whiteSpace=wrap;html=1;absoluteArcSize=1;arcSize=14;strokeWidth=2;fontSize=11;" parent="1" vertex="1">
          <mxGeometry x="212.5" y="-290" width="100" height="60" as="geometry" />
        </mxCell>
        <mxCell id="tdRsFweF9JX3h99Y0t2S-51" value="&lt;b&gt;USER IS NOTIFIED&lt;/b&gt;" style="rounded=1;whiteSpace=wrap;html=1;absoluteArcSize=1;arcSize=14;strokeWidth=2;fontSize=11;" parent="1" vertex="1">
          <mxGeometry x="212.5" y="-190" width="100" height="60" as="geometry" />
        </mxCell>
        <mxCell id="tdRsFweF9JX3h99Y0t2S-52" value="" style="endArrow=classic;html=1;rounded=0;fontSize=11;exitX=0;exitY=0.5;exitDx=0;exitDy=0;" parent="1" source="tdRsFweF9JX3h99Y0t2S-47" target="tdRsFweF9JX3h99Y0t2S-51" edge="1">
          <mxGeometry width="50" height="50" relative="1" as="geometry">
            <mxPoint x="387.5" y="-150" as="sourcePoint" />
            <mxPoint x="437.5" y="-200" as="targetPoint" />
          </mxGeometry>
        </mxCell>
        <mxCell id="tdRsFweF9JX3h99Y0t2S-53" value="" style="endArrow=none;html=1;rounded=0;fontSize=11;" parent="1" edge="1">
          <mxGeometry width="50" height="50" relative="1" as="geometry">
            <mxPoint x="162.5" y="-260" as="sourcePoint" />
            <mxPoint x="212.5" y="-260" as="targetPoint" />
          </mxGeometry>
        </mxCell>
        <mxCell id="tdRsFweF9JX3h99Y0t2S-54" value="" style="endArrow=classic;html=1;rounded=0;fontSize=11;" parent="1" edge="1">
          <mxGeometry width="50" height="50" relative="1" as="geometry">
            <mxPoint x="162.5" y="-260" as="sourcePoint" />
            <mxPoint x="162.5" y="-390" as="targetPoint" />
          </mxGeometry>
        </mxCell>
        <mxCell id="tdRsFweF9JX3h99Y0t2S-55" value="&lt;b&gt;USER IS REDIRECTED TO HOMEPAGE&lt;/b&gt;" style="rounded=1;whiteSpace=wrap;html=1;absoluteArcSize=1;arcSize=14;strokeWidth=2;fontSize=11;" parent="1" vertex="1">
          <mxGeometry x="95" y="-440" width="130" height="50" as="geometry" />
        </mxCell>
        <mxCell id="tdRsFweF9JX3h99Y0t2S-56" value="" style="endArrow=classic;html=1;rounded=0;fontSize=11;exitX=0.25;exitY=0;exitDx=0;exitDy=0;" parent="1" edge="1">
          <mxGeometry width="50" height="50" relative="1" as="geometry">
            <mxPoint x="135" y="-440" as="sourcePoint" />
            <mxPoint x="135.5" y="-1860" as="targetPoint" />
          </mxGeometry>
        </mxCell>
        <mxCell id="tdRsFweF9JX3h99Y0t2S-57" value="" style="endArrow=classic;html=1;rounded=0;fontSize=11;entryX=-0.011;entryY=0.38;entryDx=0;entryDy=0;entryPerimeter=0;" parent="1" edge="1" target="tdRsFweF9JX3h99Y0t2S-5">
          <mxGeometry width="50" height="50" relative="1" as="geometry">
            <mxPoint x="135" y="-1860" as="sourcePoint" />
            <mxPoint x="395" y="-1870" as="targetPoint" />
          </mxGeometry>
        </mxCell>
        <mxCell id="tdRsFweF9JX3h99Y0t2S-59" value="" style="edgeStyle=segmentEdgeStyle;endArrow=classic;html=1;rounded=0;fontSize=11;entryX=0.5;entryY=1;entryDx=0;entryDy=0;entryPerimeter=0;" parent="1" target="tdRsFweF9JX3h99Y0t2S-44" edge="1">
          <mxGeometry width="50" height="50" relative="1" as="geometry">
            <mxPoint x="252.5" y="-80" as="sourcePoint" />
            <mxPoint x="302.5" y="-130" as="targetPoint" />
          </mxGeometry>
        </mxCell>
        <mxCell id="tdRsFweF9JX3h99Y0t2S-60" value="" style="endArrow=none;html=1;rounded=0;fontSize=11;" parent="1" edge="1">
          <mxGeometry width="50" height="50" relative="1" as="geometry">
            <mxPoint x="252.5" y="-80" as="sourcePoint" />
            <mxPoint x="252.5" y="-130" as="targetPoint" />
          </mxGeometry>
        </mxCell>
      </root>
    </mxGraphModel>
  </diagram>
</mxfile>
